<svg width="95" height="34" viewBox="0 0 95 34" fill="none" xmlns="http://www.w3.org/2000/svg">
<path d="M0.731 32V30.98H2.329V9.22H0.731V8.2H7.293C8.415 8.2 9.452 8.642 10.404 9.526C11.356 10.3987 12.121 11.702 12.699 13.436C13.2883 15.1587 13.583 17.3177 13.583 19.913C13.583 22.5197 13.2883 24.724 12.699 26.526C12.1097 28.3167 11.339 29.6767 10.387 30.606C9.435 31.5353 8.40367 32 7.293 32H0.731ZM6.443 30.98H7.021C7.463 30.98 7.871 30.5663 8.245 29.739C8.619 28.9117 8.91933 27.6763 9.146 26.033C9.384 24.3897 9.503 22.3497 9.503 19.913C9.503 17.6917 9.38967 15.782 9.163 14.184C8.94767 12.586 8.66433 11.362 8.313 10.512C7.973 9.65067 7.599 9.22 7.191 9.22H6.443V30.98ZM21.2418 32.34C20.3464 32.34 19.5361 32.1303 18.8108 31.711C18.0968 31.2803 17.4791 30.6683 16.9578 29.875C16.4478 29.0703 16.0568 28.0957 15.7848 26.951C15.5128 25.795 15.3768 24.4917 15.3768 23.041C15.3768 21.4317 15.5524 20.0547 15.9038 18.91C16.2551 17.7653 16.7198 16.8303 17.2978 16.105C17.8758 15.3797 18.4991 14.847 19.1678 14.507C19.8364 14.167 20.4881 13.997 21.1228 13.997C21.8934 13.997 22.6018 14.1897 23.2478 14.575C23.8938 14.9603 24.4491 15.5043 24.9138 16.207C25.3898 16.8983 25.7581 17.72 26.0188 18.672C26.2794 19.624 26.4098 20.6723 26.4098 21.817C26.4098 22.0437 26.4041 22.2703 26.3928 22.497C26.3928 22.7237 26.3871 22.9503 26.3758 23.177H19.2358V22.157H22.4828C22.4828 20.4343 22.4374 19.0573 22.3468 18.026C22.2561 16.9833 22.1088 16.2297 21.9048 15.765C21.7008 15.289 21.4401 15.051 21.1228 15.051C20.8168 15.051 20.5391 15.289 20.2898 15.765C20.0404 16.241 19.8421 17.0343 19.6948 18.145C19.5474 19.2557 19.4738 20.7687 19.4738 22.684C19.4738 24.078 19.5078 25.3077 19.5758 26.373C19.6551 27.427 19.7798 28.311 19.9498 29.025C20.1198 29.739 20.3521 30.2773 20.6468 30.64C20.9528 30.9913 21.3324 31.167 21.7858 31.167C22.6584 31.167 23.3498 30.9517 23.8598 30.521C24.3698 30.0903 24.7268 29.6483 24.9308 29.195L25.7808 29.824C25.5201 30.4473 24.9874 31.0253 24.1828 31.558C23.3781 32.0793 22.3978 32.34 21.2418 32.34ZM34.306 32.357C33.5127 32.357 32.759 32.1473 32.045 31.728C31.3423 31.2973 30.719 30.6797 30.175 29.875C29.6423 29.059 29.223 28.073 28.917 26.917C28.6223 25.761 28.475 24.4577 28.475 23.007C28.475 21.375 28.6733 19.9867 29.07 18.842C29.4667 17.6973 29.971 16.7737 30.583 16.071C31.195 15.357 31.8467 14.8357 32.538 14.507C33.2407 14.167 33.8867 13.997 34.476 13.997C35.3147 13.997 36.04 14.218 36.652 14.66C37.264 15.102 37.7343 15.68 38.063 16.394C38.403 17.108 38.573 17.8843 38.573 18.723C38.573 19.4597 38.42 20.0207 38.114 20.406C37.8193 20.7913 37.4397 20.984 36.975 20.984C36.4877 20.984 36.091 20.8197 35.785 20.491C35.479 20.1623 35.326 19.7147 35.326 19.148C35.326 18.7627 35.3997 18.4453 35.547 18.196C35.6943 17.9353 35.8417 17.686 35.989 17.448C36.1477 17.21 36.227 16.938 36.227 16.632C36.227 16.0993 36.0797 15.7083 35.785 15.459C35.4903 15.1983 35.139 15.068 34.731 15.068C34.3117 15.068 33.966 15.323 33.694 15.833C33.4333 16.343 33.2293 16.9947 33.082 17.788C32.9347 18.5813 32.8383 19.4313 32.793 20.338C32.7477 21.2447 32.725 22.0947 32.725 22.888C32.725 23.806 32.7533 24.7523 32.81 25.727C32.8667 26.7017 32.9743 27.6027 33.133 28.43C33.303 29.2573 33.541 29.9317 33.847 30.453C34.153 30.963 34.5497 31.218 35.037 31.218C35.7057 31.218 36.227 31.0083 36.601 30.589C36.9863 30.1697 37.2527 29.722 37.4 29.246L38.199 29.909C37.961 30.5323 37.519 31.099 36.873 31.609C36.227 32.1077 35.3713 32.357 34.306 32.357ZM45.8413 32.374C45.1726 32.374 44.504 32.1813 43.8353 31.796C43.1666 31.4107 42.549 30.8327 41.9823 30.062C41.427 29.28 40.9793 28.3053 40.6393 27.138C40.3106 25.9707 40.1463 24.605 40.1463 23.041C40.1463 21.341 40.322 19.913 40.6733 18.757C41.0246 17.5897 41.4836 16.6603 42.0503 15.969C42.617 15.2777 43.229 14.779 43.8863 14.473C44.555 14.1557 45.2066 13.997 45.8413 13.997C46.4646 13.997 47.1106 14.1557 47.7793 14.473C48.448 14.779 49.0656 15.2777 49.6323 15.969C50.199 16.6603 50.658 17.5897 51.0093 18.757C51.372 19.913 51.5533 21.341 51.5533 23.041C51.5533 24.605 51.3833 25.9707 51.0433 27.138C50.7033 28.3053 50.25 29.28 49.6833 30.062C49.128 30.8327 48.516 31.4107 47.8473 31.796C47.1786 32.1813 46.51 32.374 45.8413 32.374ZM45.8413 31.218C46.3513 31.218 46.7366 30.555 46.9973 29.229C47.2693 27.903 47.4053 25.8403 47.4053 23.041C47.4053 20.2643 47.2693 18.2527 46.9973 17.006C46.7366 15.7593 46.3513 15.136 45.8413 15.136C45.3426 15.136 44.9573 15.7593 44.6853 17.006C44.4246 18.2527 44.2943 20.2643 44.2943 23.041C44.2943 25.8403 44.4246 27.903 44.6853 29.229C44.9573 30.555 45.3426 31.218 45.8413 31.218ZM52.8859 32V30.98H54.6029V15.221H52.8859V14.201H58.3939L58.5809 15.867C58.6376 15.697 58.7736 15.4647 58.9889 15.17C59.2043 14.864 59.4876 14.592 59.8389 14.354C60.2016 14.116 60.6153 13.997 61.0799 13.997C61.7259 13.997 62.2643 14.2123 62.6949 14.643C63.1256 15.0623 63.4486 15.629 63.6639 16.343C63.8906 17.0457 64.0039 17.8277 64.0039 18.689C64.0039 19.4257 63.8566 19.9923 63.5619 20.389C63.2786 20.7857 62.8876 20.984 62.3889 20.984C61.9243 20.984 61.5503 20.814 61.2669 20.474C60.9836 20.1227 60.8419 19.6523 60.8419 19.063C60.8419 18.6663 60.9213 18.3433 61.0799 18.094C61.2386 17.8333 61.3916 17.584 61.5389 17.346C61.6863 17.0967 61.7599 16.7963 61.7599 16.445C61.7599 16.0143 61.6806 15.697 61.5219 15.493C61.3746 15.2777 61.1366 15.17 60.8079 15.17C60.4566 15.17 60.1166 15.3457 59.7879 15.697C59.4593 16.0483 59.1929 16.5413 58.9889 17.176C58.7849 17.7993 58.6829 18.5417 58.6829 19.403V30.98H60.4169V32H52.8859Z" fill="black"/>
</svg>
