<svg width="18" height="18" viewBox="0 0 17 17" fill="none" xmlns="http://www.w3.org/2000/svg">
<path d="M12.266 4.33461C12.266 5.19842 11.8597 6.02684 11.1365 6.63765C10.4134 7.24845 9.43253 7.59159 8.40981 7.59159C7.38708 7.59159 6.40625 7.24845 5.68308 6.63765C4.9599 6.02684 4.55363 5.19842 4.55363 4.33461C4.55363 3.47081 4.9599 2.64239 5.68308 2.03158C6.40625 1.42078 7.38708 1.07764 8.40981 1.07764C9.43253 1.07764 10.4134 1.42078 11.1365 2.03158C11.8597 2.64239 12.266 3.47081 12.266 4.33461V4.33461ZM8.40981 10.0343C6.62004 10.0343 4.90358 10.6348 3.63803 11.7037C2.37248 12.7726 1.6615 14.2224 1.6615 15.734H15.1581C15.1581 14.2224 14.4471 12.7726 13.1816 11.7037C11.916 10.6348 10.1996 10.0343 8.40981 10.0343V10.0343Z" stroke="black" stroke-width="2" stroke-linecap="round" stroke-linejoin="round"/>
</svg>
