<svg width="18" height="18" viewBox="0 0 21 16" fill="none" xmlns="http://www.w3.org/2000/svg">
<path d="M3.1996 3.02731C2.79676 3.36755 2.4772 3.77148 2.25919 4.21603C2.04117 4.66058 1.92896 5.13705 1.92896 5.61823C1.92896 6.09941 2.04117 6.57588 2.25919 7.02043C2.4772 7.46499 2.79676 7.86892 3.1996 8.20916L10.6054 14.4642L18.0112 8.20916C18.8247 7.522 19.2818 6.59002 19.2818 5.61823C19.2818 4.64645 18.8247 3.71446 18.0112 3.02731C17.1976 2.34015 16.0942 1.95411 14.9436 1.95411C13.793 1.95411 12.6896 2.34015 11.876 3.02731L10.6054 4.10048L9.33478 3.02731C8.93194 2.68706 8.4537 2.41716 7.92736 2.23302C7.40102 2.04888 6.83689 1.9541 6.26719 1.9541C5.69749 1.9541 5.13336 2.04888 4.60702 2.23302C4.08068 2.41716 3.60244 2.68706 3.1996 3.02731V3.02731Z" stroke="black" stroke-width="2" stroke-linecap="round" stroke-linejoin="round"/>
</svg>
